<svg width="56" height="54" viewBox="0 0 56 54" fill="none" xmlns="http://www.w3.org/2000/svg">
<g id="Kubernetes_logo_without_workmark 1" clip-path="url(#clip0_99_100)">
<g id="layer1">
<g id="g3052">
<path id="path3055" d="M27.8112 0.773911C27.3298 0.797989 26.8582 0.916498 26.424 1.12249L7.49427 10.1037C7.00432 10.336 6.57383 10.6741 6.23475 11.0928C5.89568 11.5114 5.65674 12 5.53569 12.5221L0.865603 32.6961C0.757764 33.1609 0.745695 33.6423 0.830111 34.1118C0.914527 34.5813 1.09371 35.0293 1.35706 35.4294C1.42092 35.5272 1.4896 35.6219 1.56285 35.7131L14.6652 51.8893C15.0044 52.3079 15.4349 52.6459 15.9249 52.8781C16.4148 53.1103 16.9516 53.2309 17.4954 53.2308L38.5071 53.2259C39.0507 53.2263 39.5873 53.1062 40.0773 52.8744C40.5672 52.6426 40.9979 52.3051 41.3372 51.8869L54.4348 35.7083C54.7741 35.2895 55.0132 34.8008 55.1343 34.2785C55.2555 33.7561 55.2555 33.2136 55.1344 32.6913L50.4571 12.5173C50.336 11.9952 50.0971 11.5066 49.758 11.088C49.419 10.6693 48.9885 10.3312 48.4985 10.0989L29.5664 1.12249C29.0202 0.86337 28.4167 0.743512 27.8112 0.773911Z" fill="#C5C5C5"/>
<path id="path3059" d="M27.9987 7.6394C27.373 7.63947 26.8656 8.19912 26.8657 8.88946C26.8657 8.90006 26.8679 8.91018 26.8681 8.92072C26.8672 9.01452 26.8626 9.12752 26.8657 9.20919C26.8806 9.60736 26.968 9.91211 27.0207 10.279C27.116 11.0641 27.1958 11.715 27.1465 12.3199C27.0986 12.548 26.9294 12.7567 26.7786 12.9017L26.7519 13.3777C26.072 13.4336 25.3875 13.536 24.7038 13.6902C21.7618 14.3535 19.2288 15.8582 17.3004 17.8899C17.1753 17.8051 16.9563 17.6492 16.8912 17.6014C16.689 17.6285 16.4845 17.6905 16.2182 17.5365C15.7112 17.1976 15.2494 16.7298 14.6906 16.1663C14.4345 15.8967 14.2491 15.64 13.9449 15.3802C13.8758 15.3212 13.7704 15.2413 13.6931 15.1806C13.4553 14.9923 13.1748 14.8942 12.9039 14.8849C12.5556 14.8731 12.2203 15.0083 12.0008 15.2816C11.6108 15.7674 11.7357 16.51 12.2793 16.9403C12.2848 16.9447 12.2907 16.9481 12.2962 16.9524C12.3709 17.0125 12.4624 17.0895 12.531 17.1399C12.8539 17.3765 13.1487 17.4977 13.4704 17.6856C14.148 18.1011 14.7098 18.4457 15.1554 18.8611C15.3294 19.0453 15.3598 19.3698 15.383 19.5102L15.7461 19.8323C13.8021 22.7373 12.9024 26.3256 13.4341 29.9818L12.9596 30.1188C12.8345 30.2792 12.6578 30.5315 12.4729 30.6068C11.89 30.7892 11.2338 30.8561 10.4417 30.9386C10.0698 30.9693 9.74897 30.951 9.35471 31.0251C9.26794 31.0415 9.14703 31.0727 9.05209 31.0949C9.04879 31.0955 9.0457 31.0965 9.0424 31.0973C9.03723 31.0984 9.03043 31.1009 9.02546 31.1021C8.35764 31.2623 7.92863 31.8718 8.06675 32.4723C8.20489 33.073 8.8572 33.4383 9.52902 33.2945C9.53387 33.2934 9.54091 33.2932 9.54597 33.2921C9.55355 33.2904 9.56023 33.2867 9.56776 33.2849C9.66141 33.2645 9.77877 33.2417 9.8607 33.22C10.2483 33.1169 10.529 32.9655 10.8775 32.8329C11.6272 32.5659 12.2481 32.3429 12.853 32.256C13.1057 32.2363 13.3719 32.4108 13.5043 32.4843L13.9982 32.4002C15.1347 35.8991 17.5165 38.7271 20.5324 40.5016L20.3266 40.992C20.4008 41.1824 20.4826 41.44 20.4274 41.6281C20.2074 42.1944 19.8307 42.7921 19.4018 43.4584C19.1941 43.7663 18.9816 44.0052 18.7941 44.3575C18.7493 44.4418 18.6922 44.5713 18.6489 44.6604C18.3577 45.2791 18.5713 45.9916 19.1307 46.259C19.6935 46.5281 20.3922 46.2443 20.6946 45.6244C20.6951 45.6235 20.6966 45.6229 20.697 45.622C20.6973 45.6213 20.6967 45.6203 20.697 45.6196C20.7401 45.5317 20.8011 45.4162 20.8374 45.3335C20.998 44.9684 21.0514 44.6554 21.1643 44.3022C21.4641 43.5545 21.6288 42.7699 22.0415 42.281C22.1545 42.1472 22.3387 42.0957 22.5297 42.0449L22.7863 41.5833C25.4156 42.5855 28.3586 42.8544 31.2985 42.1915C31.9692 42.0403 32.6167 41.8447 33.2426 41.6098C33.3147 41.7368 33.4487 41.981 33.4847 42.0425C33.6788 42.1052 33.8907 42.1376 34.0633 42.3911C34.3721 42.9149 34.5832 43.5345 34.8404 44.283C34.9533 44.6362 35.0091 44.9491 35.1697 45.3143C35.2063 45.3975 35.267 45.5147 35.3101 45.6028C35.6118 46.2247 36.3128 46.5095 36.8765 46.2398C37.4358 45.9723 37.6496 45.2598 37.3583 44.6412C37.315 44.5521 37.2554 44.4226 37.2106 44.3383C37.0231 43.986 36.8106 43.7495 36.6029 43.4416C36.1739 42.7753 35.8182 42.2217 35.5982 41.6555C35.5062 41.3634 35.6137 41.1818 35.6854 40.992C35.6425 40.9431 35.5506 40.6673 35.4965 40.5376C38.6308 38.7 40.9427 35.7665 42.0283 32.3786C42.175 32.4015 42.4298 32.4462 42.5125 32.4627C42.6829 32.3511 42.8396 32.2055 43.1468 32.2295C43.7518 32.3164 44.3727 32.5395 45.1224 32.8065C45.4708 32.939 45.7516 33.0929 46.1392 33.1959C46.2211 33.2177 46.3385 33.238 46.4321 33.2584C46.4397 33.2603 46.4463 33.2639 46.4539 33.2656C46.459 33.2668 46.466 33.2669 46.4709 33.268C47.1427 33.4117 47.7951 33.0466 47.9331 32.4459C48.0711 31.8453 47.6423 31.2357 46.9744 31.0756C46.8773 31.0537 46.7395 31.0164 46.6452 30.9987C46.2509 30.9246 45.93 30.9428 45.5581 30.9122C44.766 30.8297 44.1099 30.7627 43.5269 30.5804C43.2892 30.4888 43.1201 30.208 43.0379 30.0924L42.5803 29.9602C42.8176 28.2559 42.7536 26.4822 42.3431 24.7075C41.9287 22.9163 41.1965 21.2781 40.2199 19.8347C40.3372 19.7288 40.5589 19.5338 40.6217 19.4765C40.6401 19.2746 40.6243 19.063 40.8348 18.8395C41.2804 18.424 41.8422 18.0795 42.5198 17.6639C42.8414 17.476 43.1388 17.3549 43.4616 17.1182C43.5346 17.0647 43.6342 16.9799 43.7109 16.9187C44.2544 16.4882 44.3796 15.7457 43.9893 15.26C43.5991 14.7742 42.843 14.7285 42.2995 15.159C42.2221 15.2198 42.1172 15.2992 42.0477 15.3585C41.7435 15.6184 41.5557 15.875 41.2996 16.1446C40.7409 16.7082 40.279 17.1783 39.772 17.5173C39.5523 17.6443 39.2305 17.6003 39.0844 17.5918L38.6535 17.8971C36.1962 15.3385 32.8505 13.7026 29.248 13.3849C29.2379 13.235 29.2247 12.964 29.2213 12.8824C29.0739 12.7423 28.8957 12.6227 28.8509 12.3199C28.8016 11.715 28.8839 11.0641 28.9792 10.279C29.0318 9.91211 29.1193 9.60736 29.1342 9.20919C29.1376 9.11868 29.1321 8.98733 29.1318 8.88946C29.1317 8.19912 28.6245 7.63934 27.9987 7.6394ZM26.58 16.3658L26.2435 22.2675L26.2193 22.2795C26.1967 22.8075 25.7591 23.2291 25.2219 23.2291C25.0018 23.2291 24.7986 23.1589 24.6336 23.0392L24.6239 23.044L19.7504 19.6135C21.2482 18.1511 23.1641 17.0703 25.372 16.5725C25.7753 16.4816 26.1784 16.4141 26.58 16.3658ZM29.4199 16.3658C31.9976 16.6806 34.3815 17.8396 36.2083 19.6159L31.3663 23.0248L31.3494 23.0175C30.9196 23.3292 30.3141 23.2519 29.9791 22.8348C29.8419 22.664 29.7699 22.4631 29.7612 22.2603L29.7564 22.2579L29.4199 16.3658ZM17.9831 21.818L22.4329 25.7701L22.428 25.7941C22.8297 26.1408 22.8889 26.7425 22.5539 27.1596C22.4167 27.3304 22.233 27.445 22.0358 27.4985L22.031 27.5178L16.3272 29.1525C16.0368 26.5165 16.6625 23.9542 17.9831 21.818ZM37.9829 21.8204C38.644 22.8845 39.1447 24.0729 39.4427 25.3614C39.7372 26.6344 39.8111 27.9051 39.6897 29.1332L33.9568 27.4937L33.9519 27.4697C33.4386 27.3304 33.1231 26.8118 33.2426 26.2917C33.2916 26.0787 33.4055 25.8984 33.5597 25.7653L33.5573 25.7532L37.9829 21.8204ZM27.086 26.0754H28.909L30.042 27.4817L29.6353 29.2366L27.9987 30.0179L26.3573 29.2342L25.9506 27.4793L27.086 26.0754ZM32.9303 30.8881C33.0078 30.8842 33.0849 30.8912 33.1603 30.9049L33.17 30.8929L39.0699 31.8833C38.2064 34.2922 36.5542 36.379 34.3466 37.7755L32.0563 32.2824L32.0636 32.2728C31.8532 31.7874 32.0637 31.2182 32.5478 30.9867C32.6717 30.9274 32.8012 30.8946 32.9303 30.8881ZM23.0212 30.9121C23.4714 30.9184 23.8753 31.2287 23.9799 31.6838C24.0289 31.8969 24.005 32.108 23.9242 32.2944L23.9412 32.3161L21.6751 37.7538C19.5565 36.4039 17.869 34.3826 16.9663 31.9026L22.8154 30.917L22.8251 30.929C22.8905 30.917 22.9569 30.9113 23.0212 30.9121ZM27.9624 33.2945C28.1193 33.2888 28.2784 33.3207 28.4297 33.393C28.628 33.4879 28.7811 33.6371 28.8776 33.8161H28.8993L31.7827 38.9895C31.4085 39.114 31.0238 39.2205 30.6303 39.3092C28.4252 39.8064 26.227 39.6557 24.2365 38.9823L27.1127 33.8185H27.1175C27.2901 33.4982 27.6174 33.3071 27.9624 33.2945Z" fill="white" stroke="white" stroke-width="0.25"/>
</g>
</g>
</g>
<defs>
<clipPath id="clip0_99_100">
<rect width="56" height="54" fill="white"/>
</clipPath>
</defs>
</svg>
